HIERARCHY
ROOT reference
{
  OFFSET 0 0 0
  CHANNELS 6 Xposition Yposition Zposition Zrotation Xrotation Yrotation
  JOINT Hips
  {
    OFFSET -7.334 48.0808 61.1586
    CHANNELS 6 Xposition Yposition Zposition Zrotation Xrotation Yrotation
    JOINT Spine
    {
      OFFSET 0 7.85829 0
      CHANNELS 6 Xposition Yposition Zposition Zrotation Xrotation Yrotation
      JOINT Spine1
      {
        OFFSET 0 25.1384 0
        CHANNELS 6 Xposition Yposition Zposition Zrotation Xrotation Yrotation
        JOINT Neck
        {
          OFFSET 0 25.0351 2.27592
          CHANNELS 6 Xposition Yposition Zposition Zrotation Xrotation Yrotation
          JOINT Head
          {
            OFFSET 0 13.4166 -1.91665
            CHANNELS 6 Xposition Yposition Zposition Zrotation Xrotation Yrotation
            End Site
            {
              OFFSET 0 23.9582 0
            }
          }
        }
        JOINT LeftShoulder
        {
          OFFSET 3.81534 24.0346 -0.234509
          CHANNELS 6 Xposition Yposition Zposition Zrotation Xrotation Yrotation
          JOINT LeftArm
          {
            OFFSET 8.62273 0 0
            CHANNELS 6 Xposition Yposition Zposition Zrotation Xrotation Yrotation
            JOINT LeftForeArm
            {
              OFFSET 31.7064 0 0
              CHANNELS 6 Xposition Yposition Zposition Zrotation Xrotation Yrotation
              JOINT LeftHand
              {
                OFFSET 23.7731 0 0
                CHANNELS 6 Xposition Yposition Zposition Zrotation Xrotation Yrotation
                End Site
                {
                  OFFSET 14.3749 0 0
                }
              }
            }
          }
        }
        JOINT RightShoulder
        {
          OFFSET -3.83608 24.0346 -0.234509
          CHANNELS 6 Xposition Yposition Zposition Zrotation Xrotation Yrotation
          JOINT RightArm
          {
            OFFSET -8.62273 0 0
            CHANNELS 6 Xposition Yposition Zposition Zrotation Xrotation Yrotation
            JOINT RightForeArm
            {
              OFFSET -31.7064 0 0
              CHANNELS 6 Xposition Yposition Zposition Zrotation Xrotation Yrotation
              JOINT RightHand
              {
                OFFSET -23.7731 0 0
                CHANNELS 6 Xposition Yposition Zposition Zrotation Xrotation Yrotation
                End Site
                {
                  OFFSET -14.3749 0 0
                }
              }
            }
          }
        }
      }
    }
    JOINT LeftUpLeg
    {
      OFFSET 9.58328 0 0
      CHANNELS 6 Xposition Yposition Zposition Zrotation Xrotation Yrotation
      JOINT LeftLeg
      {
        OFFSET 0 -36.4535 0
        CHANNELS 6 Xposition Yposition Zposition Zrotation Xrotation Yrotation
        JOINT LeftFoot
        {
          OFFSET 0 -41.4659 0
          CHANNELS 6 Xposition Yposition Zposition Zrotation Xrotation Yrotation
          JOINT LeftToeBase
          {
            OFFSET 0 -6.22913 14.3749
            CHANNELS 6 Xposition Yposition Zposition Zrotation Xrotation Yrotation
            End Site
            {
              OFFSET 0 0 3.83331
            }
          }
        }
      }
    }
    JOINT RightUpLeg
    {
      OFFSET -9.58328 0 0
      CHANNELS 6 Xposition Yposition Zposition Zrotation Xrotation Yrotation
      JOINT RightLeg
      {
        OFFSET 0 -36.4535 0
        CHANNELS 6 Xposition Yposition Zposition Zrotation Xrotation Yrotation
        JOINT RightFoot
        {
          OFFSET 0 -41.4659 0
          CHANNELS 6 Xposition Yposition Zposition Zrotation Xrotation Yrotation
          JOINT RightToeBase
          {
            OFFSET 0 -6.22913 14.3749
            CHANNELS 6 Xposition Yposition Zposition Zrotation Xrotation Yrotation
            End Site
            {
              OFFSET 0 0 3.83331
            }
          }
        }
      }
    }
  }
}
MOTION
Frames:	4
Frame Time:	0.004
0 0 0 0 0 -0 -20.8661 58.8333 -112.991 -5.50778 1.28872 4.40955 0 7.85829 0 -1.05377 44.067 -1.61175 0 25.1384 0 12.5502 20.6844 -4.33721 0 25.0351 2.27592 6.59885 28.2752 -1.05694 0 13.4166 -1.91665 -7.24232 -45.0729 -4.13898 3.81534 24.0346 -0.234509 -8.42926 12.3998 -20.1422 8.62273 0 -1.42109e-014 -15.1517 8.13935 -43.9967 31.7064 1.42109e-014 0 -1.55 -16.795 -19.359 23.7731 -1.42109e-014 0 14.0202 -18.1578 -9.44775 -3.83608 24.0346 -0.234509 9.61957 21.7862 25.6623 -8.62273 0 0 4.61048 19.4216 35.306 -31.7064 -1.42109e-014 0 -8.88386 -19.0364 19.943 -23.7731 -1.42109e-014 0 -7.02773 -17.7121 2.75762 9.58328 0 0 7.81733 -41.3668 2.36969 0 -36.4535 0 168.888 67.3332 -179.733 0 -41.4659 7.10543e-015 7.13373 -25.8716 7.6516 -1.77636e-015 -6.22913 14.3749 -3.97569e-016 -6.36111e-015 3.97569e-016 -9.58328 7.10543e-015 0 12.1958 -64.4206 3.08216 0 -36.4535 7.10543e-015 39.8199 87.8121 -41.7698 0 -41.4659 -1.42109e-014 -4.84328 -21.9228 -9.21954 -3.55271e-015 -6.22913 14.3749 1.49089e-016 -7.95139e-016 -0 
0 0 0 0 0 -0 -20.8806 58.937 -112.746 -5.44554 1.22808 4.35354 0 7.85829 0 -1.15784 44.0341 -1.57869 0 25.1384 0 12.5469 20.7537 -4.35313 7.10543e-015 25.0351 2.27592 6.59972 28.2334 -1.0366 0 13.4166 -1.91665 -7.2653 -44.9839 -4.127 3.81534 24.0346 -0.234509 -8.38347 12.3676 -20.1403 8.62273 -7.10543e-015 0 -15.0886 8.1082 -44.0607 31.7064 0 0 -1.53154 -16.8319 -19.4441 23.7731 0 -7.10543e-015 14.0476 -18.1874 -9.38628 -3.83608 24.0346 -0.234509 9.58568 21.7705 25.7366 -8.62273 0 -2.84217e-014 4.60242 19.4663 35.3158 -31.7064 1.42109e-014 0 -8.84404 -19.0587 19.9183 -23.7731 7.10543e-015 1.42109e-014 -7.09889 -17.7402 2.68136 9.58328 0 0 7.81264 -41.9477 2.51928 -8.88178e-016 -36.4535 0 169.459 67.2918 179.73 0 -41.4659 0 7.29837 -26.0269 7.71909 -1.77636e-015 -6.22913 14.3749 -1.98785e-016 6.36111e-015 -1.98785e-016 -9.58328 0 0 11.9932 -64.0712 2.65173 1.77636e-015 -36.4535 0 35.0091 87.9074 -36.7269 0 -41.4659 0 -4.9364 -22.0957 -9.412 0 -6.22913 14.3749 2.20695e-032 -1.59028e-015 7.95139e-016 
0 0 0 0 0 -0 -20.892 59.0348 -112.507 -5.35386 1.16468 4.27118 0 7.85829 0 -1.39302 44.0036 -1.43814 0 25.1384 -1.42109e-014 12.6309 20.8101 -4.32926 7.10543e-015 25.0351 2.27592 6.54951 28.2335 -1.03241 0 13.4166 -1.91665 -7.19985 -44.9976 -4.09487 3.81534 24.0346 -0.234509 -8.24588 12.3197 -20.295 8.62273 0 -1.42109e-014 -15.2559 7.91736 -44.0471 31.7064 0 0 -1.6119 -16.766 -19.4276 23.7731 0 0 14.0794 -18.1661 -9.62905 -3.83608 24.0346 -0.234509 9.5217 21.7501 25.7137 -8.62273 0 -1.42109e-014 4.61082 19.4744 35.3591 -31.7064 1.42109e-014 -1.42109e-014 -8.80365 -19.0704 19.8948 -23.7731 0 1.42109e-014 -7.09364 -17.7585 2.64829 9.58328 -7.10543e-015 0 7.78531 -42.5127 2.66065 -1.77636e-015 -36.4535 -7.10543e-015 170.02 67.275 179.203 1.77636e-015 -41.4659 0 7.66978 -26.187 7.75308 -1.77636e-015 -6.22913 14.3749 1.98785e-016 -1.27222e-014 5.96354e-016 -9.58328 -7.10543e-015 0 11.9857 -63.6976 2.71907 1.77636e-015 -36.4535 0 33.9624 87.841 -35.7719 3.55271e-015 -41.4659 0 -4.93553 -22.3437 -9.31601 0 -6.22913 14.3749 4.96962e-017 -7.95139e-016 7.95139e-016 
0 0 0 0 0 -0 -20.9 59.1311 -112.273 -5.25773 1.1138 4.20039 0 7.85829 0 -1.55752 43.9714 -1.35835 0 25.1384 0 12.643 20.8427 -4.32144 0 25.0351 2.27592 6.56863 28.2313 -1.03941 7.10543e-015 13.4166 -1.91665 -7.23614 -44.9587 -4.11658 3.81534 24.0346 -0.234509 -8.18016 12.3682 -20.2991 8.62273 0 0 -15.1815 7.84369 -44.1657 31.7064 1.42109e-014 0 -1.58342 -16.8054 -19.4347 23.7731 -1.42109e-014 0 14.113 -18.2055 -9.64677 -3.83608 24.0346 -0.234509 9.50877 21.7131 25.7202 -8.62273 7.10543e-015 0 4.62251 19.5132 35.3763 -31.7064 1.42109e-014 -1.42109e-014 -8.76322 -19.0256 19.8599 -23.7731 -1.42109e-014 0 -7.12843 -17.7224 2.62861 9.58328 -7.10543e-015 0 7.76688 -43.119 2.79977 -1.77636e-015 -36.4535 -1.42109e-014 170.626 67.2349 178.443 3.55271e-015 -41.4659 -7.10543e-015 7.68909 -26.3279 8.06933 0 -6.22913 14.3749 5.96354e-016 6.36111e-015 -0 -9.58328 0 1.42109e-014 11.8809 -63.4215 2.44571 -1.77636e-015 -36.4535 7.10543e-015 29.3179 87.9572 -31.0511 0 -41.4659 0 -4.79866 -22.4065 -9.33596 3.55271e-015 -6.22913 14.3749 -0 0 7.95139e-016 
